# xmcd
#
# Track frame offsets:
#	150
#	12169
#	23044
#	37186
#	48680
#	60150
#	75099
#	87891
#	100513
#	108929
#	117443
#
# Disc length: 1734 seconds
#
# Revision: 1
# Processed by: cddbd v1.5.2PL0 Copyright (c) Steve Scherf et al.
# Submitted via: audiograbber 1.83.01
#
DISCID=7506c40b
DTITLE=Johnny Cash and June Carter - Carryin' On With
DYEAR=1967
DGENRE=Country
TTITLE0=Long-Legged Guitar Pickin' Man
TTITLE1=Shantytown
TTITLE2=It Ain't Me, Babe
TTITLE3=Fast Boat To Sydney
TTITLE4=Pack Up Your Sorrows
TTITLE5=I Got A Woman
TTITLE6=Jackson
TTITLE7=Oh, What A Good Thing We had
TTITLE8=You'll Be All Right
TTITLE9=No,No,No
TTITLE10=What'd I Say
EXTD=
EXTT0=
EXTT1=
EXTT2=
EXTT3=
EXTT4=
EXTT5=
EXTT6=
EXTT7=
EXTT8=
EXTT9=
EXTT10=
PLAYORDER=
